<svg width="100" height="100" viewBox="0 0 100 100" fill="none" xmlns="http://www.w3.org/2000/svg">
<path d="M34.9508 56.342C25.8137 56.342 16.6766 56.342 7.53945 56.342C5.11778 56.342 4.02144 55.257 4.01874 52.85C4.01605 41.4129 4.01605 29.9732 4.01874 18.5361C4.01874 16.1211 5.09893 15.0064 7.52059 15.0064C25.8272 14.9984 44.1364 14.9984 62.443 15.0038C64.8808 15.0038 65.9475 16.0968 65.9475 18.5173C65.9502 29.9543 65.9475 41.3941 65.9475 52.8312C65.9475 55.2704 64.8808 56.342 62.4619 56.342C53.2897 56.342 44.1203 56.342 34.9481 56.342H34.9508Z" fill="#77C5F5"/>
<path d="M28.0416 62.2759H29.2349C40.3223 62.2759 51.407 62.2813 62.4944 62.2733C66.842 62.2706 70.2469 59.9471 71.4106 56.0863C71.7446 54.9797 71.8497 53.7708 71.8551 52.6077C71.8928 45.4407 71.8739 38.2764 71.8739 31.1094C71.8739 30.7163 71.8739 30.3205 71.8739 29.9113C76.8115 29.5748 81.539 29.4671 85.7062 32.6871C88.7313 35.0241 91.5839 37.4876 93.8709 40.5676C95.2716 42.4522 96.0339 44.4661 95.9989 46.9108C95.8912 54.7832 95.9585 62.6556 95.9585 70.528C95.9585 72.9968 94.8676 74.0819 92.3974 74.0846C91.425 74.0846 90.4525 74.0846 89.4613 74.0846C89.0787 73.0211 88.769 71.9657 88.3299 70.9668C85.7816 65.1568 79.8016 61.6406 73.4605 62.1844C67.3592 62.7094 62.023 67.2299 60.501 73.2257C60.3232 73.9311 60.0404 74.1034 59.3535 74.1007C52.9693 74.0738 46.5879 74.0765 40.2038 74.098C39.5088 74.098 39.1882 73.9661 38.9673 73.2015C37.4265 67.8545 33.9866 64.3329 28.6504 62.704C28.4376 62.6394 28.2275 62.5613 28.0146 62.4886L28.0416 62.2759ZM76.7792 37.1779V51.8431H91.0775C92.0095 43.3649 84.5668 35.7321 76.7792 37.1779Z" fill="#77C5F5"/>
<path d="M24.6959 85.8715C19.7906 85.8957 15.7662 81.9111 15.7419 77.0029C15.7177 72.1244 19.7448 68.059 24.6231 68.0401C29.5177 68.0213 33.5259 72.0032 33.569 76.9302C33.6121 81.8276 29.6227 85.8499 24.6959 85.8715Z" fill="#77C5F5"/>
<path d="M83.6885 76.9438C83.702 81.8896 79.7638 85.8581 74.8262 85.8716C69.9101 85.8877 65.9153 81.9084 65.9072 76.9868C65.8992 72.0733 69.8886 68.051 74.7831 68.0402C79.6964 68.0294 83.6751 72.006 83.6885 76.9438Z" fill="#77C5F5"/>
<path d="M21.3313 62.4187C18.2605 63.2856 15.6475 64.8229 13.5491 67.2083C11.9679 69.0068 10.8796 71.0665 10.3059 73.3873C10.1766 73.9123 9.98533 74.1196 9.4412 74.0927C8.57112 74.0523 7.69566 74.1088 6.82559 74.0711C5.37367 74.0065 4.08337 72.9269 4.04566 71.508C3.96216 68.288 4.01873 65.0652 4.01873 61.9987C9.80485 62.599 15.5748 62.0821 21.3286 62.4187H21.3313Z" fill="#77C5F5"/>
</svg>
