<svg width="100" height="100" viewBox="0 0 100 100" fill="none" xmlns="http://www.w3.org/2000/svg">
<path d="M26.4995 15.39C27.6423 15.782 28.3444 16.6343 28.9899 17.6133C31.9504 22.1047 34.9479 26.5727 37.9317 31.0485C39.2404 33.0123 38.9868 34.5218 37.1107 35.9767C35.4998 37.2268 33.8909 38.4769 32.2858 39.7309C30.7588 40.9244 30.5033 42.3598 31.3868 44.0955C34.1054 49.4392 38.041 53.8291 42.2437 58.0065C45.2354 60.9807 48.3167 63.8592 51.8798 66.1527C53.167 66.9815 54.5107 67.7265 55.8564 68.4598C57.3775 69.2887 58.8636 68.9571 59.946 67.5842C61.2644 65.9128 62.5652 64.2239 63.8738 62.5447C65.2194 60.8168 66.7913 60.5477 68.6031 61.7529C73.2915 64.8733 77.9681 68.0093 82.6663 71.1141C83.4873 71.6562 84.0236 72.37 84.3747 73.2613V74.4977C84.205 74.8683 84.0646 75.2564 83.8598 75.6035C82.6448 77.6513 81.4766 79.7283 80.1621 81.7097C79.5693 82.601 78.7599 83.4103 77.894 84.048C75.9633 85.4698 73.6289 85.6277 71.3451 85.7369C67.587 85.9164 63.9771 85.1051 60.4687 83.8121C55.0685 81.8228 50.2143 78.8448 45.7015 75.3324C36.7031 68.3291 28.7364 60.302 22.1758 50.9447C19.1139 46.5782 16.5981 41.9113 15.1179 36.7509C14.094 33.1996 13.6884 29.5897 14.2617 25.8959C14.6264 23.5498 15.389 21.3714 17.427 20.0335C19.9603 18.3661 22.6438 16.9268 25.263 15.39H26.4995Z" fill="#3478F6"/>
<path d="M85.9857 46.5841C85.9857 47.1789 86.0227 47.7776 85.9779 48.3705C85.9077 49.2871 85.2543 49.9365 84.404 50.0028C83.4601 50.0769 82.7171 49.5699 82.5806 48.5733C82.3465 46.8727 82.2997 45.1448 82.0345 43.45C81.0379 37.0591 78.1438 31.6141 73.5724 27.0798C69.5042 23.0467 64.6345 20.408 59.0295 19.2008C57.5493 18.881 56.0223 18.7698 54.5147 18.5865C53.8595 18.5065 53.1905 18.5163 52.5372 18.4246C51.4802 18.2744 50.9068 17.5841 50.9692 16.6128C51.0277 15.6553 51.7123 15 52.7595 15C56.2602 15 59.6887 15.5246 63.0061 16.6362C69.8982 18.9453 75.509 23.035 79.7547 28.9481C83.5362 34.2157 85.5644 40.1132 85.9857 46.5841Z" fill="#77C5F5"/>
<path d="M53.678 25.5235C65.5121 25.9018 75.4427 36.1152 75.4602 47.9453C75.4602 49.1876 74.8361 49.9677 73.8045 50.0087C72.7572 50.0496 72.022 49.3846 71.9654 48.1111C71.8659 45.8449 71.5753 43.6217 70.7016 41.5213C67.5832 34.0265 62.0055 29.8355 53.8906 29.0827C53.4284 29.0398 52.9643 29.0183 52.5079 28.9481C51.4743 28.7862 50.8951 28.0802 50.9672 27.109C51.0355 26.1944 51.6985 25.5781 52.6834 25.5274C53.013 25.5098 53.3445 25.5254 53.6761 25.5254L53.678 25.5235Z" fill="#77C5F5"/>
<path d="M53.3036 36.0586C59.558 36.2399 64.9757 41.8039 64.9348 48.0076C64.927 49.0608 64.4452 49.7999 63.6125 49.9637C62.7778 50.1295 62.0738 49.8779 61.6915 49.0959C61.4945 48.6941 61.4048 48.2085 61.3853 47.7561C61.2157 43.5163 57.596 39.8167 53.366 39.608C53.2333 39.6021 53.1027 39.5768 52.972 39.5573C51.5113 39.3389 50.8716 38.7167 50.9711 37.6109C51.0705 36.5188 51.8253 36.0157 53.3016 36.0586H53.3036Z" fill="#77C5F5"/>
</svg>
