<svg width="100" height="100" viewBox="0 0 100 100" fill="none" xmlns="http://www.w3.org/2000/svg">
<path d="M13 31.6661C24.4467 35.9656 35.8912 40.2738 47.3487 44.5473C47.9928 44.7876 48.1657 45.0799 48.1657 45.7423C48.1441 59.2319 48.1506 72.7214 48.1506 86.213V87.1136C36.3862 82.6951 24.6931 78.3046 13.0022 73.9121C13 59.8315 13 45.7488 13 31.6661ZM31.7457 74.0636C31.7457 72.52 31.7241 71.0652 31.7586 69.6104C31.7694 69.1493 31.5901 68.9674 31.1902 68.8375C30.5202 68.6189 29.8674 68.3483 29.2082 68.1015C26.9582 67.2593 24.7082 66.415 22.3761 65.5425C22.3761 67.1554 22.3631 68.6838 22.3955 70.2122C22.3999 70.3789 22.6268 70.6171 22.804 70.6907C23.6794 71.0544 24.572 71.3748 25.4604 71.7082C27.5267 72.4832 29.5929 73.2583 31.75 74.0658L31.7457 74.0636Z" fill="#FFB968"/>
<path d="M52.8342 87.079V86.2845C52.8342 72.743 52.8385 59.1994 52.8191 45.6579C52.8191 45.0409 53.0093 44.7789 53.5799 44.5711C56.943 43.3393 60.291 42.0642 63.6433 40.8042C63.9135 40.7024 64.188 40.618 64.5295 40.5033V52.2262C65.2406 51.9599 65.8695 51.7261 66.4985 51.4901C68.7571 50.6437 71.0115 49.7842 73.2787 48.9637C73.7672 48.7862 73.9423 48.5567 73.938 48.0241C73.912 44.5278 73.9271 41.0337 73.9207 37.5373C73.9207 37.1715 73.9488 36.9247 74.3767 36.7666C78.7859 35.1321 83.1844 33.4673 87.5871 31.8155C87.6973 31.7744 87.8162 31.7614 87.9848 31.7224V32.4173C87.9848 46.0086 87.9805 59.5999 87.9999 73.1911C87.9999 73.754 87.8184 73.9922 87.3126 74.1805C76.0388 78.3956 64.7715 82.628 53.5021 86.856C53.3032 86.9318 53.0979 86.9902 52.8364 87.0747L52.8342 87.079Z" fill="#F09A37"/>
<path d="M87.933 26.9899C84.1894 28.3971 80.6361 29.735 77.0785 31.0686C76.0302 31.4626 74.9647 32.177 73.9294 32.138C72.866 32.099 71.8242 31.3305 70.7802 30.8629C67.3544 29.3301 63.9308 27.7952 60.5137 26.2452C60.0857 26.0503 59.7248 26.0287 59.2774 26.2213C56.5735 27.3969 53.8566 28.5421 51.1462 29.6982C50.969 29.7739 50.7961 29.8605 50.5129 29.9926C55.1794 31.9215 59.7507 33.8137 64.5101 35.7816C63.8249 36.0392 63.3343 36.2254 62.8436 36.4094C58.8991 37.8945 54.9567 39.384 51.0057 40.8496C50.7183 40.9557 50.3249 40.9795 50.0439 40.8734C37.9078 36.3358 25.7759 31.7765 13.6441 27.2172C13.5079 27.1674 13.3804 27.1003 13.1318 26.9877C13.389 26.8621 13.562 26.7604 13.7457 26.6911C25.83 22.1492 37.9164 17.605 50.0093 13.0804C50.2946 12.9743 50.688 12.9721 50.9733 13.0804C63.0663 17.605 75.1505 22.1492 87.237 26.6911C87.4121 26.7561 87.5807 26.8383 87.933 26.9899Z" fill="#FFB968"/>
</svg>
