<svg width="100" height="100" viewBox="0 0 100 100" fill="none" xmlns="http://www.w3.org/2000/svg">
<path d="M49.5345 40.7133C46.5409 43.7088 43.6951 46.5585 40.6686 49.587C40.5539 49.3984 40.4547 49.1263 40.2701 48.9397C37.3407 45.9928 34.3938 43.0654 31.4722 40.1127C31.0504 39.687 30.6402 39.4848 30.0221 39.4945C27.497 39.5334 24.97 39.4984 22.443 39.5198C21.8171 39.5256 21.3331 39.3468 20.8899 38.8939C19.1385 37.1075 17.3385 35.3677 15.6104 33.558C15.2819 33.2139 15.0389 32.6347 15.0311 32.1604C14.9786 29.2699 15.0117 26.3794 15 23.4869C14.9981 22.8824 15.1205 22.3731 15.727 22.1107C16.3452 21.8444 16.7923 22.1398 17.2141 22.5616C19.5642 24.9176 21.9279 27.2619 24.2644 29.6314C24.6512 30.0241 25.0497 30.1427 25.5882 30.201C26.8595 30.3409 27.8567 29.993 28.5953 28.9375C28.6633 28.8403 28.7528 28.7431 28.8519 28.6809C30.2243 27.8392 30.3137 26.5174 30.1523 25.1256C30.1232 24.8729 29.9307 24.6027 29.7422 24.4122C27.3804 22.0329 25.0089 19.6634 22.6316 17.2996C22.1981 16.8681 21.8249 16.4269 22.0776 15.7698C22.3439 15.0837 22.9232 15.0001 23.5743 15.002C26.4163 15.0156 29.2582 15.0195 32.1001 15.0001C32.6988 14.9962 33.1672 15.1614 33.593 15.5949C35.3463 17.3793 37.1152 19.1502 38.8958 20.9074C39.3234 21.3292 39.5178 21.7841 39.512 22.3906C39.4906 25.0148 39.4867 27.639 39.5217 30.2612C39.5256 30.5995 39.7005 31.0154 39.9377 31.2565C42.9059 34.2656 45.8995 37.2494 48.893 40.2351C49.0796 40.4217 49.3206 40.5559 49.5325 40.7133H49.5345Z" fill="#C7C7CC"/>
<path d="M50.5199 59.2887C53.4862 56.3224 56.332 53.4746 59.3469 50.4578C59.4577 50.6347 59.5627 50.901 59.7473 51.0876C62.7292 54.085 65.715 57.0824 68.726 60.0507C68.9806 60.3034 69.4238 60.488 69.7834 60.4919C72.4076 60.5289 75.0338 60.4822 77.656 60.5386C78.1323 60.5483 78.7115 60.7854 79.0556 61.1159C80.8809 62.8634 82.6653 64.6556 84.4128 66.4809C84.7278 66.8094 84.963 67.3634 84.9707 67.8183C85.0193 70.7341 84.9902 73.6518 84.9999 76.5676C85.0018 77.1779 84.8502 77.6775 84.2379 77.9224C83.6489 78.1596 83.2135 77.8855 82.8111 77.4831C80.4435 75.1077 78.0623 72.7459 75.7083 70.357C75.337 69.9799 74.9541 69.8788 74.4428 69.8185C73.1405 69.663 72.1452 70.0654 71.3716 71.1151C71.1286 71.4436 70.8195 71.7371 70.4988 71.9917C69.9564 72.4233 69.8573 72.9598 69.799 73.6304C69.7018 74.7812 70.1217 75.5606 70.9381 76.3382C73.1191 78.4162 75.2145 80.5855 77.3489 82.7121C77.7999 83.1611 78.1906 83.614 77.8893 84.306C77.5919 84.9903 76.9971 85.0233 76.3595 85.0214C73.5409 85.0097 70.7223 85.0058 67.9018 85.0252C67.3011 85.0291 66.8366 84.8659 66.4089 84.4324C64.6381 82.6304 62.8225 80.8693 61.073 79.044C60.7581 78.7155 60.5268 78.1635 60.519 77.7086C60.4666 75.0844 60.484 72.4583 60.5035 69.8341C60.5074 69.3598 60.3713 69.0254 60.0331 68.6891C57.0473 65.7287 54.081 62.7487 51.105 59.7785C50.9164 59.5919 50.6948 59.4384 50.514 59.2887H50.5199Z" fill="#C7C7CC"/>
<path d="M47.6139 58.9097C45.3901 56.684 43.3316 54.6254 41.2167 52.5086C41.3702 52.3472 41.5413 52.1567 41.7221 51.976C50.1389 43.5552 58.5539 35.1345 66.9824 26.7254C67.3556 26.3521 67.5325 25.9925 67.5111 25.458C67.4703 24.3908 67.517 23.3197 67.4917 22.2506C67.4762 21.5858 67.7483 21.1523 68.3373 20.8588C72.0734 19.0005 75.8114 17.1422 79.5358 15.2586C80.2511 14.897 80.811 14.969 81.365 15.5404C82.3797 16.5862 83.4099 17.6184 84.4557 18.6351C85.0233 19.1871 85.1127 19.745 84.7492 20.4642C82.8753 24.1672 81.0209 27.88 79.1781 31.5986C78.8593 32.2439 78.4103 32.5394 77.6853 32.5161C76.6181 32.483 75.547 32.5297 74.4798 32.4966C74.0017 32.4811 73.6731 32.6405 73.3388 32.9748C64.9472 41.3859 56.5439 49.7852 48.1484 58.1924C47.9443 58.3965 47.7986 58.6589 47.6158 58.9058L47.6139 58.9097Z" fill="#C7C7CC"/>
<path d="M31.9367 57.1099C35.5853 60.7526 39.2242 64.3857 42.9039 68.0596C42.8456 68.1237 42.7445 68.2501 42.6317 68.3628C37.9782 73.0183 33.3324 77.6816 28.6671 82.3235C26.317 84.6639 23.5198 85.6106 20.2794 84.6523C15.2565 83.1652 13.3923 77.0577 16.5686 72.6529C16.866 72.2408 17.1965 71.8462 17.5541 71.4866C22.2874 66.7397 27.0285 62.0006 31.7695 57.2595C31.8375 57.1915 31.9134 57.1312 31.9367 57.1099Z" fill="#E94F3D"/>
<path d="M44.7273 66.2963C41.0301 62.5874 37.399 58.9447 33.7231 55.2552C34.5512 54.4427 35.4065 53.5816 36.2851 52.7477C36.8858 52.1781 37.4806 52.1781 38.0813 52.7749C41.1448 55.8248 44.2005 58.8825 47.2465 61.9518C47.8316 62.5427 47.8141 63.1395 47.2329 63.7499C46.4126 64.609 45.5651 65.4449 44.7253 66.2963H44.7273Z" fill="#E94F3D"/>
</svg>
